<?xml version="1.0" encoding="UTF-8"?>
<!DOCTYPE svg PUBLIC "-//W3C//DTD SVG 1.1//EN" "http://www.w3.org/Graphics/SVG/1.1/DTD/svg11.dtd">
<!-- Creator: CorelDRAW 2018 (64 Bit Versão de avaliação) -->
<?xml-stylesheet href="Sem título-1.css" type="text/css"?>
<svg xmlns="http://www.w3.org/2000/svg" xml:space="preserve" width="264.583mm" height="264.583mm" version="1.1" style="shape-rendering:geometricPrecision; text-rendering:geometricPrecision; image-rendering:optimizeQuality; fill-rule:evenodd; clip-rule:evenodd"
viewBox="0 0 26458.32 26458.32"
 xmlns:xlink="http://www.w3.org/1999/xlink">
 <g id="Camada_x0020_1">
  <metadata id="CorelCorpID_0Corel-Layer"/>
  <path class="fil0" d="M13229.16 -0.01c3653.07,0 6960.36,1480.75 9354.39,3874.78 2394.03,2394.03 3874.78,5701.32 3874.78,9354.39 0,3653.07 -1480.75,6960.36 -3874.78,9354.39 -2394.03,2394.03 -5701.32,3874.78 -9354.39,3874.78 -3653.07,0 -6960.36,-1480.75 -9354.39,-3874.78 -2394.03,-2394.03 -3874.78,-5701.32 -3874.78,-9354.39 0,-3653.07 1480.75,-6960.36 3874.78,-9354.39 2394.03,-2394.03 5701.32,-3874.78 9354.39,-3874.78zm493.97 21268.01l3389.32 -7393.64 -3475.73 0 86.41 7393.64zm4687.24 -8037.55l4383.07 7591.7c1657.1,-2084.54 2647.25,-4723.09 2647.25,-7592.99 0,-3372.15 -1366.82,-6425.06 -3576.64,-8634.89 -300.39,-300.38 -616.45,-585.09 -946.69,-852.97l-2495.87 0 -11.12 9489.15zm3680.22 8400.77l-4135.24 -7162.45 -4200.97 9473.15 -6391.21 0c1740.95,955.31 3739.97,1498.77 5865.99,1498.77 3372.15,0 6425.06,-1366.82 8634.89,-3576.64 76.57,-76.57 152.03,-154.25 226.54,-232.83zm-9467.61 -7756.86l-5245.33 0 4822.49 -10133.06 -6659.18 0c-330.24,267.88 -646.3,552.59 -946.69,852.97 -2209.82,2209.83 -3576.64,5262.74 -3576.64,8634.89 0,3372.15 1366.82,6425.06 3576.64,8634.89 379.11,379.1 783.02,733.44 1209.13,1060.24l6925.35 0 -105.77 -9049.93zm-98.73 -8447.38l-3535.94 7429.75 3622.77 0 -86.83 -7429.75zm1100.57 7429.75l3772.34 0 10.68 -9115.43 -3889.56 0 106.54 9115.43zm-6624.63 -10133.06l12457.94 0c-1823.72,-1083.65 -3953.64,-1706.04 -6228.97,-1706.04 -2275.33,0 -4405.25,622.39 -6228.97,1706.04z"/>
 </g>
</svg>
