<?xml version="1.0" encoding="UTF-8"?>
<!DOCTYPE svg PUBLIC "-//W3C//DTD SVG 1.1//EN" "http://www.w3.org/Graphics/SVG/1.1/DTD/svg11.dtd">
<!-- Creator: CorelDRAW 2018 (64 Bit Versão de avaliação) -->
<?xml-stylesheet href="Sem título-1.css" type="text/css"?>
<svg xmlns="http://www.w3.org/2000/svg" xml:space="preserve" width="264.583mm" height="264.583mm" version="1.1" style="shape-rendering:geometricPrecision; text-rendering:geometricPrecision; image-rendering:optimizeQuality; fill-rule:evenodd; clip-rule:evenodd"
viewBox="0 0 26458.32 26458.32"
 xmlns:xlink="http://www.w3.org/1999/xlink">
 <g id="Camada_x0020_1">
  <metadata id="CorelCorpID_0Corel-Layer"/>
  <path class="fil0" d="M13229.16 714.37c3455.78,0 6584.49,1400.79 8849.24,3665.55 2264.76,2264.75 3665.55,5393.46 3665.55,8849.24 0,3455.78 -1400.79,6584.49 -3665.55,8849.24 -2264.75,2264.76 -5393.46,3665.55 -8849.24,3665.55 -3455.78,0 -6584.49,-1400.79 -8849.24,-3665.55 -2264.76,-2264.75 -3665.55,-5393.46 -3665.55,-8849.24 0,-3455.78 1400.79,-6584.49 3665.55,-8849.24 2264.75,-2264.76 5393.46,-3665.55 8849.24,-3665.55zm549.26 20369.48l2957.28 -7158.34 -3032.68 0 75.4 7158.34zm4406.84 -7877.48l4037.58 6993.29c1494.61,-1925.65 2384.6,-4344.09 2384.6,-6970.5 0,-3142.08 -1273.55,-5986.67 -3332.58,-8045.7 -272.37,-272.37 -558.61,-530.87 -857.35,-774.59l-2221.95 0 -10.3 8797.5zm3254.42 7900.01l-3762.59 -6517.02 -3863.56 8791.28 -5728.8 0c1544.99,784.48 3293.02,1226.8 5144.43,1226.8 3142.08,0 5986.67,-1273.55 8045.7,-3332.58 55.55,-55.56 110.43,-111.79 164.82,-168.48zm-8868.83 -7180.87l-4980.29 0 4529.1 -9516.64 -6078.85 0c-298.74,243.72 -584.98,502.22 -857.35,774.59 -2059.03,2059.03 -3332.58,4903.62 -3332.58,8045.7 0,3142.08 1273.55,5986.67 3332.58,8045.7 346.09,346.09 714.46,669.9 1102.64,969.27l6381.98 0 -97.23 -8318.62zm-89.22 -7634.02l-3092.26 6497.5 3168.2 0 -75.94 -6497.5zm1208.11 6497.5l3363.95 0 9.81 -8380.12 -3471.7 0 97.94 8380.12zm-5971.64 -9516.64l11022.12 0c-1632.75,-905.63 -3511.63,-1421.47 -5511.06,-1421.47 -1999.43,0 -3878.31,515.84 -5511.06,1421.47z" fill="white"/>
 </g>
</svg>
